<svg width="782" height="46" viewBox="0 0 782 46" fill="none" xmlns="http://www.w3.org/2000/svg">
<path d="M4.72937 7.63337C2.66566 4.30247 5.06132 0 8.97971 0H756.818C758.759 0 760.525 1.12397 761.347 2.88288L778.174 38.8829C779.723 42.198 777.303 46 773.644 46H31.284C29.5531 46 27.9453 45.1048 27.0337 43.6334L4.72937 7.63337Z" fill="#B3ABFA"/>
<rect x="73" y="10" width="636" height="26" rx="7" fill="black" fill-opacity="0.5"/>
<rect x="73" y="10" width="122" height="26" rx="7" fill="url(#paint0_linear_112_4)"/>
<path d="M43.5489 11.9271C43.8483 11.0057 45.1517 11.0057 45.4511 11.9271L47.3064 17.6373C47.4403 18.0493 47.8243 18.3283 48.2575 18.3283H54.2616C55.2303 18.3283 55.6331 19.5679 54.8494 20.1373L49.9919 23.6664C49.6415 23.9211 49.4948 24.3724 49.6287 24.7844L51.484 30.4947C51.7834 31.416 50.7289 32.1821 49.9452 31.6127L45.0878 28.0836C44.7373 27.8289 44.2627 27.8289 43.9122 28.0836L39.0548 31.6127C38.2711 32.1821 37.2166 31.416 37.516 30.4947L39.3713 24.7844C39.5052 24.3724 39.3585 23.9211 39.0081 23.6664L34.1506 20.1373C33.3669 19.5679 33.7697 18.3283 34.7384 18.3283H40.7425C41.1757 18.3283 41.5597 18.0493 41.6936 17.6373L43.5489 11.9271Z" fill="#FECC45" class="star" style="cursor:pointer"/>
<path d="M736.549 11.9271C736.848 11.0057 738.152 11.0057 738.451 11.9271L740.306 17.6373C740.44 18.0493 740.824 18.3283 741.257 18.3283H747.262C748.23 18.3283 748.633 19.5679 747.849 20.1373L742.992 23.6664C742.641 23.9211 742.495 24.3724 742.629 24.7844L744.484 30.4947C744.783 31.416 743.729 32.1821 742.945 31.6127L738.088 28.0836C737.737 27.8289 737.263 27.8289 736.912 28.0836L732.055 31.6127C731.271 32.1821 730.217 31.416 730.516 30.4947L732.371 24.7844C732.505 24.3724 732.359 23.9211 732.008 23.6664L727.151 20.1373C726.367 19.5679 726.77 18.3283 727.738 18.3283H733.743C734.176 18.3283 734.56 18.0493 734.694 17.6373L736.549 11.9271Z" fill="#FECC45" class="star" style="cursor:pointer"/>
<defs>
<linearGradient id="paint0_linear_112_4" x1="73" y1="23" x2="195" y2="23" gradientUnits="userSpaceOnUse">
<stop stop-color="#40209B"/>
<stop offset="1" stop-color="#160B35"/>
</linearGradient>
</defs>
</svg>
